<?xml version="1.0" standalone="no"?><!DOCTYPE svg PUBLIC "-//W3C//DTD SVG 1.1//EN" "http://www.w3.org/Graphics/SVG/1.1/DTD/svg11.dtd"><svg t="1591415016643" class="icon" viewBox="0 0 1024 1024" version="1.1" xmlns="http://www.w3.org/2000/svg" p-id="25033" xmlns:xlink="http://www.w3.org/1999/xlink" width="200" height="200"><defs><style type="text/css"></style></defs><path d="M278.326 304C159.963 304 64 397.282 64 512.372c0 115.09 95.963 208.372 214.326 208.372 118.362 0 214.325-93.282 214.325-208.372 0-115.09-95.963-208.372-214.325-208.372z m-88.607 208.372c0-80.061 66.758-144.962 149.109-144.962 25.194-0.033 49.988 6.17 72.077 18.035a76.621 76.621 0 0 0-17.72-2.12c-54.376 0-98.459 57.77-98.459 129.03 0 71.259 44.028 129.028 98.458 129.028a76.621 76.621 0 0 0 17.721-2.12c-22.084 11.879-46.88 18.09-72.077 18.054-82.351 0-149.11-64.901-149.11-144.945z m245.512 2.515c0 61.075-18.602 110.455-41.533 110.455-22.932 0-41.533-49.452-41.533-110.455s18.583-110.473 41.533-110.473c22.95 0 41.533 49.452 41.533 110.455v0.018zM592.983 427.915h-34.929v-36.978c0-2.235-2.65-4.345-6.037-4.345-3.389 0-8.742 1.001-9.012 5.668l-0.324 84.97c0 2.235 3.262 7.957 8.056 8.243 4.29 0.25 7.39-4.774 7.39-6.991v-28.914l34.928 0.376v28.61c0 6.508-5.407 14.805-12.094 19.668a54.225 54.225 0 0 1-28.836 8.94c-28.71 0-43.67-16.324-43.255-25.032l-0.343-88.296c1.01-13.983 14.96-27.322 43.67-27.322 25.7 0 40.966 17.004 41.002 24.336l-0.216 37.067zM646.02 507.163h-36.945V371.72h37.044zM730.79 398.155h-21.04v109.008h-36.603V398.155h-21.736v-26.434h79.38zM820.755 371.884l-15.177 53.807-9.124 28.515-0.185 52.957-35.072-0.145v-49.426c-1.203-4.563-5.348-16.71-9.901-33.204s-8.292-26.669-15.213-52.667l33.794 0.163 8.44 52.286 10.864-52.286h31.574zM592.428 571.872l-0.293-21.814c0.257-12.943-15.892-27.267-42.061-27.267-29.013 0-41.547 12.58-41.547 30.667v83.384c0 11.18 15.654 26.922 41.529 26.595 12.845-0.182 25.086-2.981 31.82-9.09 5.91-5.344 11.323-15.015 11.323-23.122l-0.77-59.353z m-34.867 63.897c0 2.782-3.303 5.963-7.34 5.963s-7.983-3.181-7.983-5.963v-84.784c0.294-3.843 3.308-6.936 7.175-7.362 5.359-0.145 8.717 4.327 8.222 7.362v84.784h-0.074zM688.287 607.098h-35.055v29.233c-0.363 3.827-3.732 6.714-7.682 6.583-4.307 0.127-7.943-3.936-7.943-6.202l0.093-63.924v-24.283c0-3.409 4.382-6.075 8.074-6.075s7.458 2.54 7.458 6.33v35.362h35.055v-3.446l-0.205-26.458c0-16.448-15.495-31.427-42.084-31.427-29.704 0-42.215 13.764-42.215 31.808v78.431c0 16.684 12.38 30.412 42.084 30.412 10.238-0.003 20.295-2.623 29.163-7.598 7.794-4.607 13.425-12.695 13.425-19.26l-0.168-29.486zM735.574 640.323v-32.598h22.91v-22.619h-22.91v-27.939h23.116V533.21h-59.651v130.233h63.504v-23.119zM850.786 615.662l-12.155-82.453h-52.9l-9.93 72.275-7.966 57.958h35.66l1.758-23.34h13.93l1.684 23.34 36.931-0.178-7.012-47.602z m-43.626 1.9l0.56-6.767 4.096-49.468 5.012 50.729 0.56 5.542-10.228-0.036zM913.94 528l-1.692 57.654L892.458 528H863.09v135.442h28.84l1.547-52.218c0.546-0.129 1.092-0.238 1.638-0.385l16.823 52.603h30.532V528h-28.53zM884.903 395.254c0 6.827-1.979 12.113-5.937 15.857 2.565 1.03 4.381 1.872 5.39 2.284 4.664-4.77 7.088-10.319 6.974-15.97h8.877v10.26c0 1.273-1.44 1.872-4.294 1.872-1.672 0-3.804 0-6.398-0.187a24.052 24.052 0 0 1 1.585 3.183c2.536 0 4.9 0.093 7.147 0.093 5.764 0 8.502-1.61 8.502-4.811v-36.114h-21.846v23.533z m6.543-20.594h8.646v8.575h-8.646v-8.575z m0 11.383h8.646v8.63h-8.646v-8.63z" fill="#1890FF" p-id="25034"></path><path d="M906.195 395.259c0 7.19-2.02 12.472-6.06 15.848 1.564 0.638 3.328 1.407 5.348 2.288 4.382-3.526 6.715-8.833 7.085-15.923h8.849v10.203c0 1.313-1.28 1.875-3.813 1.875-1.45 0-3.642 0-6.515-0.206a14.79 14.79 0 0 1 1.85 3.245c3.385 0 6.06 0 7.994-0.094 1.904 0.14 3.8-0.3 5.152-1.194 1.351-0.895 2.01-2.147 1.79-3.401v-36.18h-21.68v23.539z m6.459-20.631h8.763v8.59h-8.763v-8.59z m0 11.403h8.763v8.646h-8.763v-8.646z" fill="#1890FF" p-id="25035"></path><path d="M930.003 381.175l-3.409 1.393a135.643 135.643 0 0 1 6.837 3.816l3.747-1.393c-2.053-1.24-4.465-2.465-7.175-3.816z" fill="#1890FF" p-id="25036"></path><path d="M925.145 394.826v-15.72h12.202c0 2.886 0 5.377-0.186 7.618-0.084 1.792-1.28 2.653-3.606 2.653-1.837 0-3.96 0-6.405-0.18 0.456 1.452 0.725 2.438 0.86 2.94h5.916c4.5 0 6.741-1.882 6.893-5.539 0-2.58 0.151-5.987 0.236-10.253h-10.112c0.775-1.272 1.5-2.509 2.19-3.728l-4.533-0.896a68.78 68.78 0 0 1-2.073 4.624h-5.225v21.241h17.09c-0.085 3.585-0.236 6.453-0.489 8.765-0.27 2.707-2.242 4.051-5.882 4.051-3.236 0-6.556 0-9.943-0.161 0.395 0.993 0.717 2.018 0.96 3.065 2.46 0 5.562 0.09 9.32 0.09 5.916 0 9.101-2.26 9.489-6.758 0.28-2.76 0.488-6.698 0.623-11.812h-17.325z" fill="#1890FF" p-id="25037"></path><path d="M921.302 400.469h15.876v5.209h-15.876zM900 448.272l-7.363 1.282v-12.937h7.497v-2.952h-7.497v-9.851h-5.157v9.85h-7.92v2.953h7.92v13.797c-3.087 0.49-5.925 0.911-8.514 1.282l0.978 3.374c5.983-1.192 12.713-2.435 20.19-3.728-0.096-0.81-0.134-1.89-0.134-3.07zM942.47 421.975a134.286 134.286 0 0 0-7.745-3.37l-2.839 1.601a90.435 90.435 0 0 1 7.438 3.608l3.146-1.839z" fill="#1890FF" p-id="25038"></path><path d="M943.015 448.634a41.72 41.72 0 0 1-0.99 5.91c-0.146 0.725-0.83 1.232-1.595 1.183a4.933 4.933 0 0 1-3.098-1.764 12.868 12.868 0 0 1-2.97-4.464 71.157 71.157 0 0 0 11.402-13.568l-4.93-1.482a50.797 50.797 0 0 1-7.92 10.71 79.877 79.877 0 0 1-2.29-15.88h16.295v-3.017h-16.497c0-2.4-0.11-4.94 0-7.657h-5.133c0 2.681 0.165 5.293 0.275 7.657h-21.941v9.51a39.01 39.01 0 0 1-1.65 13.392 22.972 22.972 0 0 1-7.13 8.716c1.43 0.776 2.749 1.587 3.959 2.4 3.368-2.586 6.03-5.923 7.754-9.723a35.104 35.104 0 0 0 1.924-11.697h8.597c0 3.399-0.11 6.469-0.33 9.21-0.128 1.905-1.485 2.876-4.05 2.876-1.54 0-3.282-0.071-5.225-0.212 0.477 1.27 0.862 2.382 1.118 3.317h4.913c5.144 0 7.827-1.73 8.047-5.187 0.22-3.635 0.385-7.922 0.458-12.88h-13.454v-6.652h17.175a74.848 74.848 0 0 0 3.245 19.585 57.453 57.453 0 0 1-13.437 8.292 41.168 41.168 0 0 1 3.666 2.523 60.687 60.687 0 0 0 11.53-7.057 13.305 13.305 0 0 0 3.208 4.022c2.043 1.824 4.73 2.833 7.516 2.823 2.436 0.082 4.585-1.52 5.114-3.81a54.377 54.377 0 0 0 1.191-5.929c-1.393-0.335-3.024-0.67-4.747-1.147zM900.134 478.024c-5.211-3.261-9.27-5.703-12.178-7.326l-3.698 2.785c2.492 1.463 6.357 4.007 11.596 7.633a114.043 114.043 0 0 1 4.28-3.092zM898.106 486.326a52.828 52.828 0 0 0 8.782-7.994h35.582v-3.126h-32.978a55.331 55.331 0 0 0 3.176-4.508h-5.363c-3.257 5.258-7.506 9.695-12.463 13.013 1.233 0.834 2.292 1.724 3.264 2.615zM878.966 484.19c3.544 2.011 7.428 4.52 11.692 7.345a144.415 144.415 0 0 0 4.184-3.458c-3.783-2.26-7.868-4.656-12.272-6.96l-3.604 3.073zM884.258 511.345l5.075 1.027a501.82 501.82 0 0 1 5.51-14.44 74.607 74.607 0 0 1-4.672-1.188 93.263 93.263 0 0 1-5.913 14.601z" fill="#1890FF" p-id="25039"></path><path d="M947.762 494.99v-3.021h-7.149c0.139-3.22 0.277-6.837 0.416-10.853h-36.616l-2.478 10.853h-7.093v3.02h6.412l-1.797 7.706v3.165h34.971c-0.643 2.19-2.685 3.292-6.09 3.292-2.358 0-5.724-0.126-10.1-0.38 0.398 1.34 0.72 2.497 0.946 3.473 3.783 0 6.752 0.127 9.116 0.127 4.161 0 7.074-0.579 8.7-1.809 1.478-1.187 2.425-2.87 2.648-4.703h5.864v-2.894h-5.485c0.132-2.188 0.283-4.847 0.416-7.976h7.32z m-12.823 7.976h-29.997l1.646-7.976h28.843c-0.152 2.912-0.303 5.607-0.492 7.976z m0.624-10.997h-28.37l1.626-7.959h27.047c0 2.822-0.19 5.481-0.303 7.959z" fill="#1890FF" p-id="25040"></path><path d="M926.594 489.78a264.3 264.3 0 0 0-7.796-3.454l-2.788 1.516a120.159 120.159 0 0 1 7.418 3.693l3.166-1.755zM926.594 500.208a146.151 146.151 0 0 0-7.817-3.464l-2.767 1.52a227.378 227.378 0 0 1 7.333 3.69l3.251-1.746zM847.214 371.721h5.292v135.442h-5.292z" fill="#1890FF" p-id="25041"></path></svg>